HIERARCHY
ROOT Hips
{
	OFFSET 0.000000 0.000000 0.000000
	CHANNELS 6 Xposition Yposition Zposition Xrotation Yrotation Zrotation
	JOINT LeftUpLeg_virtual
	{
		OFFSET 0.000000 0.000000 0.000000
		CHANNELS 3 Xrotation Yrotation Zrotation
		JOINT LeftUpLeg
		{
			OFFSET 11.394100 -6.187798 -0.413800
			CHANNELS 3 Xrotation Yrotation Zrotation
			JOINT LeftLeg
			{
				OFFSET 0.430247 -32.302673 3.732800
				CHANNELS 3 Xrotation Yrotation Zrotation
				JOINT LeftFoot
				{
					OFFSET -0.430247 -48.264931 -6.423300
					CHANNELS 3 Xrotation Yrotation Zrotation
					JOINT LeftToeBase
					{
						OFFSET 4.230900 -16.068199 23.438400
						CHANNELS 3 Xrotation Yrotation Zrotation
						JOINT LeftToe_End
						{
							OFFSET 4.510700 0.695400 19.974600
							CHANNELS 3 Xrotation Yrotation Zrotation
							End Site
							{
								OFFSET 0 0 0
							}
						}
					}
				}
			}
		}
	}
	JOINT RightUpLeg_virtual
	{
		OFFSET 0.000000 0.000000 0.000000
		CHANNELS 3 Xrotation Yrotation Zrotation
		JOINT RightUpLeg
		{
			OFFSET -11.333700 -6.187798 -0.413800
			CHANNELS 3 Xrotation Yrotation Zrotation
			JOINT RightLeg
			{
				OFFSET -0.430392 -32.302628 3.733000
				CHANNELS 3 Xrotation Yrotation Zrotation
				JOINT RightFoot
				{
					OFFSET 0.430392 -48.264973 -6.423500
					CHANNELS 3 Xrotation Yrotation Zrotation
					JOINT RightToeBase
					{
						OFFSET -4.230900 -16.068199 23.438400
						CHANNELS 3 Xrotation Yrotation Zrotation
						JOINT RightToe_End
						{
							OFFSET -4.510700 0.695400 19.974600
							CHANNELS 3 Xrotation Yrotation Zrotation
							End Site
							{
								OFFSET 0 0 0
							}
						}
					}
				}
			}
		}
	}
	JOINT Spine_virtual
	{
		OFFSET 0.000000 0.000000 0.000000
		CHANNELS 3 Xrotation Yrotation Zrotation
		JOINT Spine
		{
			OFFSET -0.002400 12.777504 0.315300
			CHANNELS 3 Xrotation Yrotation Zrotation
			JOINT Spine1
			{
				OFFSET -0.002067 5.816869 0.032633
				CHANNELS 3 Xrotation Yrotation Zrotation
				JOINT Spine1_split
				{
					OFFSET -0.002067 5.816869 0.032633
					CHANNELS 3 Xrotation Yrotation Zrotation
					JOINT Spine2
					{
						OFFSET -0.002067 5.816869 0.032633
						CHANNELS 3 Xrotation Yrotation Zrotation
						JOINT Neck_virtual
						{
							OFFSET 0.000000 0.000000 0.000000
							CHANNELS 3 Xrotation Yrotation Zrotation
							JOINT Neck
							{
								OFFSET -0.003700 21.199493 -0.826900
								CHANNELS 3 Xrotation Yrotation Zrotation
								JOINT Head
								{
									OFFSET 0.000000 20.442200 4.834800
									CHANNELS 3 Xrotation Yrotation Zrotation
									JOINT HeadTop_End
									{
										OFFSET 0.000000 34.668396 4.968400
										CHANNELS 3 Xrotation Yrotation Zrotation
										End Site
										{
											OFFSET 0 0 0
										}
									}
								}
							}
						}
						JOINT LeftShoulder_virtual
						{
							OFFSET 0.000000 0.000000 0.000000
							CHANNELS 3 Xrotation Yrotation Zrotation
							JOINT LeftShoulder
							{
								OFFSET 3.288150 8.794197 -1.372250
								CHANNELS 3 Xrotation Yrotation Zrotation
								JOINT LeftShoulder_split
								{
									OFFSET 3.288150 8.794197 -1.372250
									CHANNELS 3 Xrotation Yrotation Zrotation
									JOINT LeftArm
									{
										OFFSET 11.953299 -2.279007 -0.146200
										CHANNELS 3 Xrotation Yrotation Zrotation
										JOINT LeftForeArm
										{
											OFFSET 18.448900 0.000000 0.000000
											CHANNELS 3 Xrotation Yrotation Zrotation
											JOINT LeftHand
											{
												OFFSET 29.527798 0.000000 0.000000
												CHANNELS 3 Xrotation Yrotation Zrotation
												End Site
												{
													OFFSET 0 0 0
												}
											}
										}
									}
								}
							}
						}
						JOINT RightShoulder_virtual
						{
							OFFSET 0.000000 0.000000 0.000000
							CHANNELS 3 Xrotation Yrotation Zrotation
							JOINT RightShoulder
							{
								OFFSET -3.249400 8.794197 -1.372250
								CHANNELS 3 Xrotation Yrotation Zrotation
								JOINT RightShoulder_split
								{
									OFFSET -3.249400 8.794197 -1.372250
									CHANNELS 3 Xrotation Yrotation Zrotation
									JOINT RightArm
									{
										OFFSET -11.953299 -2.279007 -0.146200
										CHANNELS 3 Xrotation Yrotation Zrotation
										JOINT RightForeArm
										{
											OFFSET -18.448900 0.000000 0.000000
											CHANNELS 3 Xrotation Yrotation Zrotation
											JOINT RightHand
											{
												OFFSET -29.527802 0.000000 0.000000
												CHANNELS 3 Xrotation Yrotation Zrotation
												End Site
												{
													OFFSET 0 0 0
												}
											}
										}
									}
								}
							}
						}
					}
				}
			}
		}
	}
}
MOTION
Frames: 5
Frame Time: 0.03333333
-2.420622 99.094803 2.803207 0.000000 0.000000 0.000000 -7.661006 7.199667 -0.577639 -17.063363 12.850128 14.031410 24.385041 2.299151 5.993677 -0.357213 -12.359744 -9.714288 -2.235158 0.725305 -1.559730 0.000000 0.000000 0.000000 -7.879489 9.493217 -0.482792 -1.303478 -8.779912 3.576278 19.339896 -9.632038 -8.755771 -8.679375 -14.709613 4.264813 -7.962411 -0.726114 -1.967396 0.000000 0.000000 0.000000 -7.333953 6.846084 -1.054163 2.754405 0.473829 4.371124 2.273698 0.473261 2.891727 0.840527 -1.499435 -0.075724 0.000000 0.000000 0.000000 1.637130 0.751955 2.865169 12.409238 -0.781753 -1.360455 3.177619 -10.394092 -7.737218 0.000000 0.000000 0.000000 1.433486 0.775773 2.680235 2.154325 -14.459833 -11.897582 -0.589675 0.219168 -2.513318 4.171030 -3.343408 -69.891741 -1.734371 -1.154999 -0.303901 0.000000 0.000000 0.000000 1.430583 0.558542 2.896698 1.914777 8.790562 18.940401 1.216622 4.168202 -2.054414 24.971132 7.002770 59.021031 0.826341 7.006570 0.640669 0.000000 0.000000 0.000000 
-2.312666 99.334122 2.826672 0.000000 0.000000 0.000000 -7.293201 6.596271 -0.643136 -16.961134 13.197818 13.807371 23.685382 1.988616 5.884398 -0.279552 -11.459434 -9.579461 -2.080084 0.695228 -1.605812 0.000000 0.000000 0.000000 -7.526960 8.758416 -0.576624 -1.656910 -8.854292 3.436368 18.870783 -9.531649 -8.736587 -8.168665 -13.949188 4.363856 -8.026100 -0.665896 -1.943440 0.000000 0.000000 0.000000 -6.866081 6.386037 -1.105937 2.678365 0.363899 4.370160 2.355985 0.341248 2.877802 0.867530 -1.511732 -0.078733 0.000000 0.000000 0.000000 1.759259 0.580097 2.850763 12.205652 -0.534905 -1.253594 2.337442 -9.274294 -7.142556 0.000000 0.000000 0.000000 1.464759 0.601783 2.630046 2.158589 -14.669436 -12.206087 -0.652416 0.352681 -2.293214 4.544064 -2.265077 -70.111537 -1.649261 -0.921223 -0.202849 0.000000 0.000000 0.000000 1.540251 0.394711 2.904359 1.985695 8.111152 18.730303 0.894279 4.019945 -2.165151 26.979911 7.093399 58.162729 0.828647 6.867286 0.555719 0.000000 0.000000 0.000000 
-2.221694 99.571190 2.817337 0.000000 0.000000 0.000000 -6.918082 5.746756 -0.790078 -16.815115 13.481006 13.661636 22.983851 1.736916 5.742379 -0.301121 -10.319634 -9.452490 -1.924891 0.666942 -1.672329 0.000000 0.000000 0.000000 -7.152348 7.821440 -0.746933 -2.011219 -8.979386 3.313850 18.361070 -9.431758 -8.658535 -7.711382 -12.936932 4.370297 -8.038542 -0.597086 -1.885983 0.000000 0.000000 0.000000 -6.389677 5.706017 -1.234389 2.630628 0.283156 4.377920 2.460616 0.234355 2.880454 0.903334 -1.369613 -0.067471 0.000000 0.000000 0.000000 1.874144 0.425098 2.860655 11.935074 -0.275505 -1.130965 1.513182 -8.060593 -6.543506 0.000000 0.000000 0.000000 1.501084 0.452790 2.589444 2.166496 -14.828636 -12.448734 -0.797552 0.557887 -2.098755 4.910696 -1.414299 -70.420719 -1.593075 -0.680569 -0.142834 0.000000 0.000000 0.000000 1.652400 0.259567 2.923362 2.025800 7.703958 18.582575 0.547746 3.807560 -2.167193 27.558205 6.508261 57.610303 0.720380 6.263328 0.561315 0.000000 0.000000 0.000000 
-2.155412 99.793816 2.766735 0.000000 0.000000 0.000000 -6.542386 4.742249 -1.005377 -16.660546 13.662930 13.583297 22.313941 1.517986 5.581164 -0.397261 -9.001088 -9.340125 -1.809244 0.641372 -1.752555 0.000000 0.000000 0.000000 -6.766154 6.758707 -0.979252 -2.356645 -9.147637 3.215807 17.808123 -9.360907 -8.522561 -7.287624 -11.732257 4.279224 -7.989907 -0.535571 -1.801354 0.000000 0.000000 0.000000 -5.930180 4.832436 -1.437260 2.601991 0.231175 4.390436 2.584379 0.152178 2.893841 0.921252 -1.159741 -0.046358 0.000000 0.000000 0.000000 1.980792 0.301106 2.886619 11.581138 -0.011129 -0.985972 0.703579 -6.774264 -5.941624 0.000000 0.000000 0.000000 1.547991 0.335861 2.561116 2.186268 -14.933351 -12.583849 -0.992651 0.703997 -1.925106 5.329606 -0.959303 -70.759749 -1.569793 -0.528369 -0.139875 0.000000 0.000000 0.000000 1.748831 0.163529 2.950964 2.028048 7.567687 18.538305 0.346528 3.569199 -2.121883 26.769202 5.533573 57.350558 0.588307 5.417840 0.621838 0.000000 0.000000 0.000000 
-2.113809 100.008804 2.681179 0.000000 0.000000 0.000000 -6.171493 3.655237 -1.262033 -16.506438 13.752002 13.557565 21.682734 1.296008 5.408825 -0.508111 -7.600680 -9.264055 -1.748927 0.618131 -1.820685 0.000000 0.000000 0.000000 -6.379744 5.600179 -1.247841 -2.710176 -9.342069 3.138028 17.206303 -9.315967 -8.334545 -6.857605 -10.405177 4.149598 -7.955115 -0.494890 -1.703240 0.000000 0.000000 0.000000 -5.515732 3.820868 -1.692994 2.585870 0.199978 4.399890 2.720574 0.086860 2.907707 0.920755 -0.979511 -0.046857 0.000000 0.000000 0.000000 2.080414 0.211945 2.913542 11.177744 0.244675 -0.809159 -0.069245 -5.462351 -5.335059 0.000000 0.000000 0.000000 1.613094 0.252074 2.544886 2.227660 -14.972905 -12.597407 -1.212642 0.721378 -1.794819 5.800920 -0.947069 -71.079422 -1.592221 -0.544009 -0.187154 0.000000 0.000000 0.000000 1.836408 0.101158 2.970128 1.989938 7.612727 18.547281 0.382508 3.380419 -2.058043 25.028373 4.630649 57.214401 0.476536 4.787652 0.693777 0.000000 0.000000 0.000000 
